<?xml version="1.0" encoding="UTF-8"?>
<svg version="1.1" xmlns="http://www.w3.org/2000/svg" width="200" height="200">
<path d="M0 0 C66 0 132 0 200 0 C200 66 200 132 200 200 C134 200 68 200 0 200 C0 134 0 68 0 0 Z " fill="#FEFEFE" transform="translate(0,0)"/>
<path d="M0 0 C14.31910185 11.01014847 22.85819107 27.29412513 25.96484375 44.93359375 C28.04389419 64.62455411 22.16574939 82.57937254 9.96484375 97.93359375 C9.33320313 98.77277344 8.7015625 99.61195313 8.05078125 100.4765625 C-0.69139164 110.77399087 -15.76874242 118.95362211 -29.17578125 120.71875 C-48.81938976 122.19470419 -66.34454534 117.85708581 -81.78125 105.12109375 C-96.07824866 91.24532382 -104.15017724 73.62445531 -104.47265625 53.55859375 C-104.32551672 35.55919613 -97.27214795 19.16151864 -84.640625 6.48046875 C-83.78082031 5.64 -82.92101562 4.79953125 -82.03515625 3.93359375 C-81.19404297 3.04414062 -81.19404297 3.04414062 -80.3359375 2.13671875 C-58.23793752 -19.43928123 -23.79577135 -16.20072464 0 0 Z " fill="#FAFAFA" transform="translate(139.03515625,46.06640625)"/>
<path d="M0 0 C14.31910185 11.01014847 22.85819107 27.29412513 25.96484375 44.93359375 C28.04389419 64.62455411 22.16574939 82.57937254 9.96484375 97.93359375 C9.33320313 98.77277344 8.7015625 99.61195313 8.05078125 100.4765625 C-0.69139164 110.77399087 -15.76874242 118.95362211 -29.17578125 120.71875 C-48.81938976 122.19470419 -66.34454534 117.85708581 -81.78125 105.12109375 C-96.07824866 91.24532382 -104.15017724 73.62445531 -104.47265625 53.55859375 C-104.32551672 35.55919613 -97.27214795 19.16151864 -84.640625 6.48046875 C-83.78082031 5.64 -82.92101562 4.79953125 -82.03515625 3.93359375 C-81.19404297 3.04414062 -81.19404297 3.04414062 -80.3359375 2.13671875 C-58.23793752 -19.43928123 -23.79577135 -16.20072464 0 0 Z M-88.16015625 12.2890625 C-92.24239879 17.25989662 -95.91777326 22.82406158 -98.03515625 28.93359375 C-97.15300738 31.81574262 -97.15300738 31.81574262 -96.03515625 33.93359375 C-95.25140625 33.89234375 -94.46765625 33.85109375 -93.66015625 33.80859375 C-91.03515625 33.93359375 -91.03515625 33.93359375 -89.03515625 35.93359375 C-88.81601563 35.38832031 -88.596875 34.84304687 -88.37109375 34.28125 C-84.07565197 24.06647991 -78.63308736 16.94568423 -70.03515625 9.93359375 C-71.35515625 11.58359375 -72.67515625 13.23359375 -74.03515625 14.93359375 C-64.58585873 16.0357234 -64.58585873 16.0357234 -55.765625 13.5859375 C-54.13282765 11.82734956 -54.13282765 11.82734956 -52.6953125 9.890625 C-49.59752763 6.23888331 -45.18814509 4.21481297 -41.03515625 1.93359375 C-42.02515625 1.27359375 -43.01515625 0.61359375 -44.03515625 -0.06640625 C-34.54137371 -0.69236993 -27.01771917 0.9571232 -18.03515625 3.93359375 C-19.12183594 3.60875 -19.12183594 3.60875 -20.23046875 3.27734375 C-27.50182939 1.16755806 -27.50182939 1.16755806 -35.03515625 0.93359375 C-34.39578125 1.40796875 -33.75640625 1.88234375 -33.09765625 2.37109375 C-31.03515625 3.93359375 -31.03515625 3.93359375 -30.03515625 4.93359375 C-30.77765625 4.60359375 -31.52015625 4.27359375 -32.28515625 3.93359375 C-35.17398937 2.70576504 -35.17398937 2.70576504 -39.03515625 2.93359375 C-41.28580727 4.85026296 -41.28580727 4.85026296 -43.03515625 6.93359375 C-42.54015625 5.44859375 -42.54015625 5.44859375 -42.03515625 3.93359375 C-46.07108496 5.3027987 -48.71042003 7.12939863 -51.84765625 9.99609375 C-52.63785156 10.70894531 -53.42804688 11.42179687 -54.2421875 12.15625 C-54.83386719 12.74277344 -55.42554688 13.32929687 -56.03515625 13.93359375 C-56.03515625 14.26359375 -56.03515625 14.59359375 -56.03515625 14.93359375 C-53.72515625 15.26359375 -51.41515625 15.59359375 -49.03515625 15.93359375 C-49.68742187 15.92457031 -50.3396875 15.91554688 -51.01171875 15.90625 C-56.229391 16.05285999 -56.229391 16.05285999 -60.859375 18.20703125 C-64.97089676 22.80416581 -67.45142697 28.386175 -70.03515625 33.93359375 C-65.41515625 33.93359375 -60.79515625 33.93359375 -56.03515625 33.93359375 C-56.03515625 34.59359375 -56.03515625 35.25359375 -56.03515625 35.93359375 C-42.17515625 36.26359375 -28.31515625 36.59359375 -14.03515625 36.93359375 C-14.03515625 37.26359375 -14.03515625 37.59359375 -14.03515625 37.93359375 C-12.05515625 37.93359375 -10.07515625 37.93359375 -8.03515625 37.93359375 C-8.03515625 48.16359375 -8.03515625 58.39359375 -8.03515625 68.93359375 C-11.00515625 68.93359375 -13.97515625 68.93359375 -17.03515625 68.93359375 C-17.15890625 68.04671875 -17.28265625 67.15984375 -17.41015625 66.24609375 C-17.97928361 63.22971873 -18.80130061 60.73033321 -20.03515625 57.93359375 C-20.36515625 57.93359375 -20.69515625 57.93359375 -21.03515625 57.93359375 C-21.03515625 61.56359375 -21.03515625 65.19359375 -21.03515625 68.93359375 C-23.34515625 68.93359375 -25.65515625 68.93359375 -28.03515625 68.93359375 C-28.03515625 58.70359375 -28.03515625 48.47359375 -28.03515625 37.93359375 C-27.04515625 37.60359375 -26.05515625 37.27359375 -25.03515625 36.93359375 C-28.99515625 36.93359375 -32.95515625 36.93359375 -37.03515625 36.93359375 C-37.03515625 37.26359375 -37.03515625 37.59359375 -37.03515625 37.93359375 C-35.38515625 37.93359375 -33.73515625 37.93359375 -32.03515625 37.93359375 C-32.03515625 48.16359375 -32.03515625 58.39359375 -32.03515625 68.93359375 C-33.52015625 69.42859375 -33.52015625 69.42859375 -35.03515625 69.93359375 C-32.06561334 71.63638682 -29.95430818 72.18025554 -26.54199219 72.16064453 C-25.66138123 72.16049347 -24.78077026 72.16034241 -23.87347412 72.16018677 C-22.93167297 72.1498642 -21.98987183 72.13954163 -21.01953125 72.12890625 C-19.56308197 72.12466141 -19.56308197 72.12466141 -18.07720947 72.12033081 C-14.9797324 72.10914667 -11.88254575 72.08404517 -8.78515625 72.05859375 C-6.68359793 72.04856167 -4.58203507 72.03943622 -2.48046875 72.03125 C2.66808044 72.00921309 7.81641288 71.9746952 12.96484375 71.93359375 C11.01119069 73.88724681 8.03084623 73.05381499 5.43083191 73.05801392 C4.49000259 73.05441864 3.54917328 73.05082336 2.57983398 73.04711914 C1.10194901 73.04733818 1.10194901 73.04733818 -0.40579224 73.04756165 C-3.67940432 73.04686207 -6.95296029 73.0390676 -10.2265625 73.03125 C-12.48957793 73.02938598 -14.75259376 73.027962 -17.01560974 73.02696228 C-22.98494573 73.02313585 -28.95425757 73.0133045 -34.92358398 73.0022583 C-41.00959954 72.99204687 -47.09561898 72.98746524 -53.18164062 72.98242188 C-65.13282314 72.97168234 -77.08398769 72.95460443 -89.03515625 72.93359375 C-87.82491837 77.40095008 -86.61272339 81.06724305 -84.03515625 84.93359375 C-85.02515625 85.42859375 -85.02515625 85.42859375 -86.03515625 85.93359375 C-86.03515625 84.94359375 -86.03515625 83.95359375 -86.03515625 82.93359375 C-86.69515625 82.93359375 -87.35515625 82.93359375 -88.03515625 82.93359375 C-88.03515625 81.61359375 -88.03515625 80.29359375 -88.03515625 78.93359375 C-88.69515625 78.93359375 -89.35515625 78.93359375 -90.03515625 78.93359375 C-90.53015625 75.96359375 -90.53015625 75.96359375 -91.03515625 72.93359375 C-92.35515625 72.93359375 -93.67515625 72.93359375 -95.03515625 72.93359375 C-96.7018963 76.94892206 -97.56202361 79.37155968 -96.1484375 83.5625 C-92.48779098 90.61300549 -87.61757656 96.33195685 -82.03515625 101.93359375 C-81.42027344 102.57167969 -80.80539063 103.20976562 -80.171875 103.8671875 C-68.34900451 115.23435849 -52.27350183 119.46761081 -36.26904297 119.28320312 C-18.38805167 118.68595945 -4.11353876 110.60599507 7.96484375 97.93359375 C20.34164612 84.60828877 24.89374112 67.32145125 24.30859375 49.49609375 C23.29365877 32.38718978 16.12561069 17.94554011 3.96484375 5.93359375 C3.35125 5.29808594 2.73765625 4.66257812 2.10546875 4.0078125 C-9.34541623 -7.02712153 -25.10611648 -11.59514659 -40.68017578 -11.41601562 C-60.42964768 -10.76226437 -75.25816064 -2.01223043 -88.16015625 12.2890625 Z " fill="#FCFAFA" transform="translate(139.03515625,46.06640625)"/>
<path d="M0 0 C2.0625 2.5 2.0625 2.5 3 5 C2.6875 7.3125 2.6875 7.3125 2 9 C1.34 9 0.68 9 0 9 C1.43347499 12.38957108 3.18781692 14.2780678 6 16.625 C8.07660336 18.3733168 10.07962765 20.07962765 12 22 C12.103125 21.360625 12.20625 20.72125 12.3125 20.0625 C12.539375 19.381875 12.76625 18.70125 13 18 C13.99 17.67 14.98 17.34 16 17 C16 17.66 16 18.32 16 19 C16.66 19 17.32 19 18 19 C18.99 20.98 19.98 22.96 21 25 C20.34 25 19.68 25 19 25 C19 25.99 19 26.98 19 28 C20.65 28.66 22.3 29.32 24 30 C22.68 31.65 21.36 33.3 20 35 C21.485 35.495 21.485 35.495 23 36 C23 36.66 23 37.32 23 38 C20.0384304 39.4807848 17.16493705 39.35314037 13.875 39.5625 C12.59367187 39.64628906 11.31234375 39.73007813 9.9921875 39.81640625 C9.00476563 39.87699219 8.01734375 39.93757813 7 40 C6.7834375 41.423125 6.7834375 41.423125 6.5625 42.875 C6 46 6 46 5 48 C4.84870448 50.78441955 4.76861571 53.52712487 4.75 56.3125 C4.729375 57.07240234 4.70875 57.83230469 4.6875 58.61523438 C4.65532271 63.2447413 5.00724717 66.23562175 8 70 C10.06700655 71.32793606 10.06700655 71.32793606 12 72 C12 72.66 12 73.32 12 74 C14.97 74 17.94 74 21 74 C21 74.33 21 74.66 21 75 C14.80697799 75.04944073 8.61407091 75.08573905 2.42089844 75.10986328 C0.31410725 75.11992034 -1.79266999 75.13356768 -3.89941406 75.15087891 C-6.92776941 75.17514 -9.95594019 75.18648608 -12.984375 75.1953125 C-13.92617615 75.20563507 -14.86797729 75.21595764 -15.83831787 75.22659302 C-16.71892883 75.22674408 -17.59953979 75.22689514 -18.50683594 75.22705078 C-19.27960876 75.231492 -20.05238159 75.23593323 -20.84857178 75.24050903 C-23.27181653 74.96961352 -24.89773202 74.20548093 -27 73 C-25.515 72.505 -25.515 72.505 -24 72 C-24 61.77 -24 51.54 -24 41 C-25.65 41 -27.3 41 -29 41 C-29 40.67 -29 40.34 -29 40 C-25.04 40 -21.08 40 -17 40 C-18.485 40.495 -18.485 40.495 -20 41 C-20 51.23 -20 61.46 -20 72 C-17.69 72 -15.38 72 -13 72 C-13 68.37 -13 64.74 -13 61 C-9.63661956 64.36338044 -9 67.28835716 -9 72 C-6.03 72 -3.06 72 0 72 C0 61.77 0 51.54 0 41 C-1.98 41 -3.96 41 -6 41 C-6 40.67 -6 40.34 -6 40 C-19.86 39.67 -33.72 39.34 -48 39 C-48 38.34 -48 37.68 -48 37 C-52.62 37 -57.24 37 -62 37 C-55.56708828 23.18816013 -55.56708828 23.18816013 -51 20 C-47.64440482 19.16487436 -44.45016522 18.95227044 -41 19 C-43.31 18.67 -45.62 18.34 -48 18 C-44.38748484 13.43951988 -41.01202555 9.98334854 -36 7 C-35.34 7.33 -34.68 7.66 -34 8 C-34 8.33 -34 8.66 -34 9 C-33.38125 8.2575 -33.38125 8.2575 -32.75 7.5 C-31 6 -31 6 -27 6 C-24.57004908 6.82973934 -22.33725954 7.92126483 -20 9 C-22.31 7.68 -24.62 6.36 -27 5 C-27 4.67 -27 4.34 -27 4 C-25.4372038 4.14262412 -23.87477304 4.28925511 -22.3125 4.4375 C-21.00732422 4.55931641 -21.00732422 4.55931641 -19.67578125 4.68359375 C-17.07710729 4.9908822 -14.55755267 5.45162384 -12 6 C-20.1609778 3.56907044 -27.49077472 2.59264347 -36 3 C-35.01 3.66 -34.02 4.32 -33 5 C-33.72445312 5.43570313 -34.44890625 5.87140625 -35.1953125 6.3203125 C-41.6106162 10.11960042 -41.6106162 10.11960042 -46.6875 15.4375 C-50.71426141 19.12538865 -55.45743257 18.46431653 -60.6159668 18.30639648 C-62.41168506 18.22457317 -64.20610393 18.11504797 -66 18 C-64.68 16.35 -63.36 14.7 -62 13 C-70.92398958 20.27206394 -77.60095133 27.83870076 -81 39 C-81.66 38.34 -82.32 37.68 -83 37 C-83.825 37 -84.65 37 -85.5 37 C-86.325 37 -87.15 37 -88 37 C-88.66 36.34 -89.32 35.68 -90 35 C-89.01470431 24.63680066 -81.00415113 16.02826181 -74 9 C-73.38511719 8.36191406 -72.77023438 7.72382812 -72.13671875 7.06640625 C-53.51692032 -10.83571258 -21.76301286 -13.55055518 0 0 Z " fill="#D8E2EA" transform="translate(131,43)"/>
<path d="M0 0 C33.33 0 66.66 0 101 0 C99.00814269 9.95928653 92.37399118 17.31552488 85 24 C84.34 23.67 83.68 23.34 83 23 C83.66 22.34 84.32 21.68 85 21 C78.13776677 20.13121543 78.13776677 20.13121543 71.83984375 22.3828125 C70.5559893 23.60076066 69.29570333 24.84397394 68.05859375 26.109375 C64.56106612 29.32152562 60.30497727 31.08569658 56 33 C61.7809725 32.36934845 67.3443706 31.34844868 73 30 C65.08190548 36.69992613 53.88002931 36.65623811 44 36 C28.26977244 33.59874922 15.30198931 25.57288289 5.7265625 13.01953125 C2.73419686 8.49434157 1.0799611 5.39980548 0 0 Z " fill="#6F93B1" transform="translate(50,119)"/>
<path d="M0 0 C16.83 0 33.66 0 51 0 C50.34 0.66 49.68 1.32 49 2 C48.72082705 5.20813626 48.72082705 5.20813626 48.8046875 8.9765625 C48.80893234 10.00443375 48.80893234 10.00443375 48.81326294 11.05307007 C48.82446719 13.24389027 48.84957141 15.43430316 48.875 17.625 C48.88502952 19.1093691 48.89415542 20.5937446 48.90234375 22.078125 C48.92440706 25.71888261 48.95893824 29.35940156 49 33 C46.03 33 43.06 33 40 33 C39.01 30.03 38.02 27.06 37 24 C36.67 26.97 36.34 29.94 36 33 C33.69 33 31.38 33 29 33 C29 22.77 29 12.54 29 2 C27.68 2 26.36 2 25 2 C25 12.23 25 22.46 25 33 C24.01 33.495 24.01 33.495 23 34 C25.76170144 34.92056715 27.52178855 35.14800149 30.37963867 35.20532227 C31.26032516 35.22526749 32.14101166 35.24521271 33.04838562 35.26576233 C33.99534805 35.28247482 34.94231049 35.29918732 35.91796875 35.31640625 C37.37654045 35.3475779 37.37654045 35.3475779 38.86457825 35.37937927 C41.97214665 35.44478748 45.07979985 35.50371929 48.1875 35.5625 C50.29362858 35.60569351 52.39974856 35.64930807 54.50585938 35.69335938 C59.67048591 35.80045999 64.83519778 35.90175219 70 36 C69.505 36.99 69.505 36.99 69 38 C35.34 38 1.68 38 -33 38 C-33 37.34 -33 36.68 -33 36 C-26.73 35.67 -20.46 35.34 -14 35 C-14.495 34.505 -14.495 34.505 -15 34 C-15.0883967 31.6243148 -15.11530305 29.27791326 -15.09765625 26.90234375 C-15.0962413 26.19348526 -15.09482635 25.48462677 -15.09336853 24.75428772 C-15.08775443 22.48198288 -15.07519963 20.20977525 -15.0625 17.9375 C-15.05748681 16.40039204 -15.05292359 14.86328255 -15.04882812 13.32617188 C-15.03778042 9.55074358 -15.02050641 5.77538829 -15 2 C-12.36 2 -9.72 2 -7 2 C-7 10.25 -7 18.5 -7 27 C-4.69 27 -2.38 27 0 27 C1.71443219 25.28556781 1.23052967 22.99554759 1.31640625 20.65234375 C1.37924805 19.03295898 1.37924805 19.03295898 1.44335938 17.38085938 C1.48267578 16.24455078 1.52199219 15.10824219 1.5625 13.9375 C1.60568359 12.79732422 1.64886719 11.65714844 1.69335938 10.48242188 C1.79982839 7.65507805 1.90184207 4.82764262 2 2 C1.34 2 0.68 2 0 2 C0 1.34 0 0.68 0 0 Z " fill="#ECECF3" transform="translate(82,82)"/>
<path d="M0 0 C0.61875 0.185625 1.2375 0.37125 1.875 0.5625 C4.04160178 1.23686176 4.04160178 1.23686176 6 0 C11.2484121 3.39397316 16.39854212 6.75250041 21 11 C21 11.66 21 12.32 21 13 C21.57234375 13.19722656 22.1446875 13.39445312 22.734375 13.59765625 C25.89442873 15.55362054 27.40527485 18.31171572 29.25 21.4375 C29.61351562 22.02337891 29.97703125 22.60925781 30.3515625 23.21289062 C32.04867763 26.0233388 33 27.66000574 33 31 C16.62899618 32.4114876 0.43282788 33.29908079 -16 33 C-16 32.34 -16 31.68 -16 31 C-20.62 31 -25.24 31 -30 31 C-23.56708828 17.18816013 -23.56708828 17.18816013 -19 14 C-15.64440482 13.16487436 -12.45016522 12.95227044 -9 13 C-11.31 12.67 -13.62 12.34 -16 12 C-12.38748484 7.43951988 -9.01202555 3.98334854 -4 1 C-3.34 1.33 -2.68 1.66 -2 2 C-2 2.33 -2 2.66 -2 3 C-1.34 2.01 -0.68 1.02 0 0 Z " fill="#8BAECB" transform="translate(99,49)"/>
<path d="M0 0 C1.32 0 2.64 0 4 0 C4.33 1.98 4.66 3.96 5 6 C5.66 6 6.32 6 7 6 C7 7.32 7 8.64 7 10 C7.66 10 8.32 10 9 10 C9 10.99 9 11.98 9 13 C9.75925781 13.09023437 10.51851562 13.18046875 11.30078125 13.2734375 C14.50098754 14.13485337 15.22936703 15.01751188 17.1875 17.625 C25.39927715 27.49679232 37.29717203 33.37871801 50 35 C58.88677327 35.52203723 68.02006375 35.31642006 76 31 C75.34773438 31.2165625 74.69546875 31.433125 74.0234375 31.65625 C69.22478868 33.18502308 65.10078102 34.40269324 60 34 C62.15302558 31.84697442 63.86864372 31.06267398 66.625 29.8125 C70.39717861 28.01263192 72.98329454 26.18855567 75.875 23.1875 C79.33308378 19.90018579 81.76231439 19.55140472 86.5 19.5625 C88.33575186 19.67382654 90.17093073 19.80794773 92 20 C91.505 21.485 91.505 21.485 91 23 C93.64 20.36 96.28 17.72 99 15 C99 18.51716303 98.17554415 19.37121748 96 22 C102.66601735 16.34398528 106.97422347 8.10848488 110 0 C110.99 0.495 110.99 0.495 112 1 C104.27796023 18.4354365 94.97375544 30.36434352 76.9765625 38.33984375 C62.59130274 43.87718347 47.78616917 43.29732733 33.55859375 37.62890625 C18.43107787 30.70445606 7.88161188 19.83696171 1.5625 4.3125 C1.0298061 2.87935283 0.5041113 1.44344913 0 0 Z " fill="#F8EDEE" transform="translate(44,119)"/>
<path d="M0 0 C14.31910185 11.01014847 22.85819107 27.29412513 25.96484375 44.93359375 C28.04389419 64.62455411 22.16574939 82.57937254 9.96484375 97.93359375 C9.33320313 98.77277344 8.7015625 99.61195313 8.05078125 100.4765625 C-0.69139164 110.77399087 -15.76874242 118.95362211 -29.17578125 120.71875 C-48.81938976 122.19470419 -66.34454534 117.85708581 -81.78125 105.12109375 C-96.07824866 91.24532382 -104.15017724 73.62445531 -104.47265625 53.55859375 C-104.32551672 35.55919613 -97.27214795 19.16151864 -84.640625 6.48046875 C-83.78082031 5.64 -82.92101562 4.79953125 -82.03515625 3.93359375 C-81.19404297 3.04414062 -81.19404297 3.04414062 -80.3359375 2.13671875 C-58.23793752 -19.43928123 -23.79577135 -16.20072464 0 0 Z M-88.125 12.18359375 C-99.70105759 25.96340847 -103.2202893 43.0465147 -102.2421875 60.56152344 C-100.82119804 76.84257723 -93.60041007 90.50987275 -82.03515625 101.93359375 C-81.4215625 102.56910156 -80.80796875 103.20460938 -80.17578125 103.859375 C-68.36699917 115.23920559 -52.26799966 119.46754741 -36.26904297 119.28320312 C-18.38805167 118.68595945 -4.11353876 110.60599507 7.96484375 97.93359375 C20.34164612 84.60828877 24.89374112 67.32145125 24.30859375 49.49609375 C23.29365877 32.38718978 16.12561069 17.94554011 3.96484375 5.93359375 C3.35125 5.29808594 2.73765625 4.66257812 2.10546875 4.0078125 C-9.34541623 -7.02712153 -25.10611648 -11.59514659 -40.68017578 -11.41601562 C-60.53384827 -10.7588151 -75.00609135 -1.94068921 -88.125 12.18359375 Z " fill="#707171" transform="translate(139.03515625,46.06640625)"/>
<path d="M0 0 C1.95059832 2.92589748 3.4285892 5.8571784 5 9 C12.92779483 23.66478921 24.72914417 32.88500641 40.46484375 38.30859375 C55.57311405 42.4290311 70.09464364 39.53004816 84 33 C94.73665605 26.58880251 102.28221098 18.59257171 107.3828125 7.1875 C109 5 109 5 112.1796875 4.1875 C113.11039062 4.125625 114.04109375 4.06375 115 4 C110.82373355 13.31938558 106.41644679 20.79100626 99 28 C98.38640625 28.63421875 97.7728125 29.2684375 97.140625 29.921875 C85.80554603 40.86942991 70.02070802 45.5312386 54.57250977 45.42211914 C36.00560213 44.79073249 21.82290454 37.13431794 9 24 C4.27562523 18.79129185 -0.29419471 12.95343529 -2 6 C-1.25 2.4375 -1.25 2.4375 0 0 Z " fill="#F9F1F1" transform="translate(44,120)"/>
<path d="M0 0 C0.99 0.99 0.99 0.99 2 2 C1.443125 1.86722656 0.88625 1.73445313 0.3125 1.59765625 C-4.7858701 0.41779695 -9.79787441 -0.43249539 -15 -1 C-13.02 0.32 -11.04 1.64 -9 3 C-12.16820458 3 -13.25594908 2.37202546 -16 1 C-16.99 1 -17.98 1 -19 1 C-19.33 11.23 -19.66 21.46 -20 32 C-20.33 32 -20.66 32 -21 32 C-21.33 22.1 -21.66 12.2 -22 2 C-23.32 3.32 -24.64 4.64 -26 6 C-25.67 4.68 -25.34 3.36 -25 2 C-26.44037669 2.93307421 -27.87718985 3.87165077 -29.3125 4.8125 C-30.11300781 5.33457031 -30.91351563 5.85664062 -31.73828125 6.39453125 C-33.7237402 7.80389849 -35.3491852 9.22096657 -37 11 C-34.69 11.33 -32.38 11.66 -30 12 C-30.33 12.66 -30.66 13.32 -31 14 C-32.54004223 14.07375681 -34.08333504 14.08345919 -35.625 14.0625 C-38.99464073 14.32281559 -40.54582823 14.60207501 -43.11328125 16.8515625 C-46.3062746 20.94023492 -48.92831269 25.24730558 -51 30 C-46.71 30.33 -42.42 30.66 -38 31 C-38 31.66 -38 32.32 -38 33 C-48.89 33 -59.78 33 -71 33 C-69.32196141 22.93176845 -63.051919 14.29944251 -55 8 C-52.2578125 6.78515625 -52.2578125 6.78515625 -50 6 C-51.65 7.65 -53.3 9.3 -55 11 C-46.04064909 12.03723401 -46.04064909 12.03723401 -37.7265625 9.6171875 C-36.03878587 7.83630736 -36.03878587 7.83630736 -34.5625 5.890625 C-31.97270386 2.75697166 -28.50523178 0.9756761 -25 -1 C-26.98 -1.33 -28.96 -1.66 -31 -2 C-31 -2.33 -31 -2.66 -31 -3 C-20.20316677 -5.40146562 -10.29804678 -3.88659066 0 0 Z " fill="#81A2BE" transform="translate(121,49)"/>
<path d="M0 0 C2.97 0 5.94 0 9 0 C10.32 4.62 11.64 9.24 13 14 C13 9.38 13 4.76 13 0 C15.31 0 17.62 0 20 0 C20 10.23 20 20.46 20 31 C17.03 31 14.06 31 11 31 C10.01 28.03 9.02 25.06 8 22 C7.67 24.97 7.34 27.94 7 31 C4.69 31 2.38 31 0 31 C0 20.77 0 10.54 0 0 Z " fill="#95999E" transform="translate(111,84)"/>
<path d="M0 0 C5.28 0 10.56 0 16 0 C15.01 2.64 14.02 5.28 13 8 C13.66 8 14.32 8 15 8 C15.2165625 6.576875 15.2165625 6.576875 15.4375 5.125 C16 2 16 2 17 0 C21.95 0 26.9 0 32 0 C25.36194747 14.4830237 25.36194747 14.4830237 20 18 C15.90988085 18.64580829 12.10126024 18.48487806 8 18 C8 17.01 8 16.02 8 15 C7.01 16.485 7.01 16.485 6 18 C3.1796875 18.29296875 3.1796875 18.29296875 -0.125 18.1875 C-1.22070312 18.16042969 -2.31640625 18.13335937 -3.4453125 18.10546875 C-4.70988281 18.05326172 -4.70988281 18.05326172 -6 18 C-4 12 -2 6 0 0 Z " fill="#F2F9FB" transform="translate(118,120)"/>
<path d="M0 0 C-0.875 5.75 -0.875 5.75 -2 8 C-2.15129552 10.78441955 -2.23138429 13.52712487 -2.25 16.3125 C-2.270625 17.07240234 -2.29125 17.83230469 -2.3125 18.61523438 C-2.34467729 23.2447413 -1.99275283 26.23562175 1 30 C3.06700655 31.32793606 3.06700655 31.32793606 5 32 C5 32.66 5 33.32 5 34 C7.97 34 10.94 34 14 34 C14 34.33 14 34.66 14 35 C7.80697799 35.04944073 1.61407091 35.08573905 -4.57910156 35.10986328 C-6.68589275 35.11992034 -8.79266999 35.13356768 -10.89941406 35.15087891 C-13.92776941 35.17514 -16.95594019 35.18648608 -19.984375 35.1953125 C-20.92617615 35.20563507 -21.86797729 35.21595764 -22.83831787 35.22659302 C-23.71892883 35.22674408 -24.59953979 35.22689514 -25.50683594 35.22705078 C-26.27960876 35.231492 -27.05238159 35.23593323 -27.84857178 35.24050903 C-30.27181653 34.96961352 -31.89773202 34.20548093 -34 33 C-32.515 32.505 -32.515 32.505 -31 32 C-31 21.77 -31 11.54 -31 1 C-32.65 1 -34.3 1 -36 1 C-36 0.67 -36 0.34 -36 0 C-32.04 0 -28.08 0 -24 0 C-24.99 0.33 -25.98 0.66 -27 1 C-27 11.23 -27 21.46 -27 32 C-24.69 32 -22.38 32 -20 32 C-20 28.37 -20 24.74 -20 21 C-16.63661956 24.36338044 -16 27.28835716 -16 32 C-13.03 32 -10.06 32 -7 32 C-7 21.77 -7 11.54 -7 1 C-8.98 1 -10.96 1 -13 1 C-13 0.67 -13 0.34 -13 0 C-4.57142857 -1.28571429 -4.57142857 -1.28571429 0 0 Z " fill="#FAFCFC" transform="translate(138,83)"/>
<path d="M0 0 C1.37478516 0.01740234 1.37478516 0.01740234 2.77734375 0.03515625 C3.69644531 0.04417969 4.61554688 0.05320312 5.5625 0.0625 C6.27277344 0.07410156 6.98304688 0.08570312 7.71484375 0.09765625 C8.6490802 3.10797369 8.75934286 3.96415893 7.71484375 7.09765625 C6.06484375 7.42765625 4.41484375 7.75765625 2.71484375 8.09765625 C2.71484375 13.37765625 2.71484375 18.65765625 2.71484375 24.09765625 C4.69484375 24.09765625 6.67484375 24.09765625 8.71484375 24.09765625 C8.75738731 26.09720371 8.75565158 28.09807261 8.71484375 30.09765625 C7.15533824 31.65716176 5.62607244 31.37962323 3.46484375 31.47265625 C-0.3899171 31.44810363 -1.09675802 31.24680485 -4.28515625 28.72265625 C-7.55567088 24.4301058 -7.53148617 21.09714958 -7.59765625 15.84765625 C-7.62666016 15.09613281 -7.65566406 14.34460938 -7.68554688 13.5703125 C-7.74586829 8.25274774 -6.74222269 5.35454113 -3.28515625 1.09765625 C-2.28515625 0.09765625 -2.28515625 0.09765625 0 0 Z " fill="#515051" transform="translate(142.28515625,83.90234375)"/>
<path d="M0 0 C5.61 0 11.22 0 17 0 C17 2.31 17 4.62 17 7 C15.35 7 13.7 7 12 7 C12 14.92 12 22.84 12 31 C9.36 31 6.72 31 4 31 C4 23.08 4 15.16 4 7 C2.68 7 1.36 7 0 7 C0 4.69 0 2.38 0 0 Z " fill="#BC2A2F" transform="translate(46,84)"/>
<path d="M0 0 C2.64 0 5.28 0 8 0 C8 8.25 8 16.5 8 25 C9.98 25 11.96 25 14 25 C14 26.98 14 28.96 14 31 C9.38 31 4.76 31 0 31 C0 20.77 0 10.54 0 0 Z " fill="#B43236" transform="translate(67,84)"/>
<path d="M0 0 C2.97 0 5.94 0 9 0 C9 10.23 9 20.46 9 31 C6.03 31 3.06 31 0 31 C0 20.77 0 10.54 0 0 Z " fill="#989CA0" transform="translate(98,84)"/>
<path d="M0 0 C2.45898655 -0.08076963 4.91533742 -0.14037143 7.375 -0.1875 C8.07367188 -0.21263672 8.77234375 -0.23777344 9.4921875 -0.26367188 C11.5234375 -0.29296875 11.5234375 -0.29296875 15 0 C17 3 17 3 17 7 C17.66 7 18.32 7 19 7 C20.47265625 8.8984375 20.47265625 8.8984375 22.0625 11.375 C22.58972656 12.18710938 23.11695312 12.99921875 23.66015625 13.8359375 C25 16 25 16 26 18 C12.90775088 19.21318139 12.90775088 19.21318139 8.5859375 16.46484375 C6.78196511 14.40259337 5.37444211 12.36801473 4 10 C3.57203125 9.34515625 3.1440625 8.6903125 2.703125 8.015625 C0.93685858 5.18475964 0 3.37810248 0 0 Z " fill="#F4FAFC" transform="translate(52,120)"/>
<path d="M0 0 C1.47668858 0.0133035 2.95331108 0.03716415 4.4296875 0.0703125 C5.18378906 0.07933594 5.93789062 0.08835938 6.71484375 0.09765625 C8.57826004 0.1212438 10.44151343 0.15711531 12.3046875 0.1953125 C11.83417969 0.91976562 11.36367187 1.64421875 10.87890625 2.390625 C10.25628906 3.35742188 9.63367188 4.32421875 8.9921875 5.3203125 C8.37730469 6.27164063 7.76242188 7.22296875 7.12890625 8.203125 C5.35825637 11.10744579 3.82588968 14.15290815 2.3046875 17.1953125 C-2.9753125 17.1953125 -8.2553125 17.1953125 -13.6953125 17.1953125 C-12.1919208 12.68513741 -11.25045058 10.15026272 -8.6953125 6.4453125 C-7.921875 5.30835937 -7.921875 5.30835937 -7.1328125 4.1484375 C-4.24468338 0.22434902 -4.24468338 0.22434902 0 0 Z " fill="#F7FCFD" transform="translate(65.6953125,62.8046875)"/>
<path d="M0 0 C13.22953924 -1.06038292 13.22953924 -1.06038292 17.19140625 1.3125 C18.74395707 3.12853855 19.87551192 4.8941405 21 7 C21.60908203 7.94939453 21.60908203 7.94939453 22.23046875 8.91796875 C24.01257564 11.77055623 25 13.59265772 25 17 C20.05 17 15.1 17 10 17 C7.8515625 12.99609375 7.8515625 12.99609375 5.703125 8.9921875 C3.93184824 5.88026549 2.01758334 2.9561982 0 0 Z " fill="#F7FCFD" transform="translate(124,63)"/>
<path d="M0 0 C2.39774745 -0.13572155 4.78775245 -0.23436868 7.1875 -0.3125 C8.19780273 -0.3753418 8.19780273 -0.3753418 9.22851562 -0.43945312 C13.32198414 -0.53929382 14.81111803 -0.15925343 17.98828125 2.51953125 C18.98408203 3.74736328 18.98408203 3.74736328 20 5 C20.11602431 3.64082319 20.11602431 3.64082319 18 1.9375 C17.34 1.298125 16.68 0.65875 16 0 C19.47800715 -0.55675609 22.54367252 -0.76348726 26 0 C30.05266863 3.83937028 32.03087948 8.86752382 34 14 C22.18175468 14.9269212 11.20118559 10.22351729 2 3 C1.34 2.01 0.68 1.02 0 0 Z " fill="#EDF9FC" transform="translate(65,139)"/>
<path d="M0 0 C2.31 0 4.62 0 7 0 C7 10.23 7 20.46 7 31 C4.03 31 1.06 31 -2 31 C-2.50559908 29.56445975 -3.0042749 28.1264798 -3.5 26.6875 C-3.91765625 25.48673828 -3.91765625 25.48673828 -4.34375 24.26171875 C-5 22 -5 22 -5 19 C-3.35 18.67 -1.7 18.34 0 18 C0 12.06 0 6.12 0 0 Z " fill="#4F4F4F" transform="translate(124,84)"/>
<path d="M0 0 C2.64 0 5.28 0 8 0 C8 10.23 8 20.46 8 31 C5.36 31 2.72 31 0 31 C0 20.77 0 10.54 0 0 Z " fill="#DD312F" transform="translate(85,84)"/>
<path d="M0 0 C5.28 0 10.56 0 16 0 C14.75319887 6.54570591 12.86560931 11.98222045 10 18 C6.7 18 3.4 18 0 18 C0 12.06 0 6.12 0 0 Z " fill="#F1F9FC" transform="translate(101,120)"/>
<path d="M0 0 C0.66 0 1.32 0 2 0 C2.4125 0.89460938 2.825 1.78921875 3.25 2.7109375 C11.05278255 19.22881383 21.50853376 30.4933853 39 37 C52.69165072 41.87892778 68.0938622 39.52889304 80.96484375 33.64453125 C95.91645456 25.99439293 103.03468756 14.67249248 110 0 C110.99 0.495 110.99 0.495 112 1 C104.27796023 18.4354365 94.97375544 30.36434352 76.9765625 38.33984375 C62.59130274 43.87718347 47.78616917 43.29732733 33.55859375 37.62890625 C18.43107787 30.70445606 7.88161188 19.83696171 1.5625 4.3125 C1.0298061 2.87935283 0.5041113 1.44344913 0 0 Z " fill="#BE6666" transform="translate(44,119)"/>
<path d="M0 0 C4.95 0 9.9 0 15 0 C15 5.94 15 11.88 15 18 C12.03 18 9.06 18 6 18 C5.17581505 16.31817609 4.36622649 14.62919626 3.5625 12.9375 C3.11003906 11.99777344 2.65757813 11.05804688 2.19140625 10.08984375 C1 7 1 7 0 0 Z " fill="#F7FCFD" transform="translate(85,120)"/>
<path d="M0 0 C4.62 0 9.24 0 14 0 C14.9802271 2.43707838 15.95922171 4.87463945 16.9375 7.3125 C17.21529297 8.00279297 17.49308594 8.69308594 17.77929688 9.40429688 C18.92140128 12.25267773 20.02930231 15.08790694 21 18 C11.35703048 19.06393534 11.35703048 19.06393534 8.19140625 16.58203125 C6.39810384 14.08630772 5.20854894 11.89926302 4.51171875 8.89453125 C4.10450966 6.76195622 4.10450966 6.76195622 1.9375 4.9375 C1.298125 4.298125 0.65875 3.65875 0 3 C0 2.01 0 1.02 0 0 Z " fill="#F4FBFC" transform="translate(69,120)"/>
<path d="M0 0 C0.763125 0.20625 1.52625 0.4125 2.3125 0.625 C2.3125 4.625 2.3125 4.625 0.875 6.25 C0.359375 6.70375 -0.15625 7.1575 -0.6875 7.625 C-1.0175 8.285 -1.3475 8.945 -1.6875 9.625 C-3.6675 8.965 -5.6475 8.305 -7.6875 7.625 C-7.6875 8.285 -7.6875 8.945 -7.6875 9.625 C-6.6975 9.955 -5.7075 10.285 -4.6875 10.625 C-5.0175 12.275 -5.3475 13.925 -5.6875 15.625 C-5.0275 15.955 -4.3675 16.285 -3.6875 16.625 C-4.30994599 17.89708622 -4.93556767 19.16761882 -5.5625 20.4375 C-5.91054688 21.14519531 -6.25859375 21.85289063 -6.6171875 22.58203125 C-7.6875 24.625 -7.6875 24.625 -9.6875 27.625 C-10.0175 26.965 -10.3475 26.305 -10.6875 25.625 C-11.47125 25.66625 -12.255 25.7075 -13.0625 25.75 C-15.6875 25.625 -15.6875 25.625 -17.6875 23.625 C-16.96238346 15.46743889 -11.19390903 7.42905276 -5.6875 1.625 C-2.6875 -0.375 -2.6875 -0.375 0 0 Z " fill="#E0E3E5" transform="translate(58.6875,54.375)"/>
<path d="M0 0 C3.63573404 -0.95637263 6.39740885 -1.1709667 10 0 C13.96480428 3.87349537 16.61707019 9.05570844 19 14 C19 14.99 19 15.98 19 17 C14.38 17 9.76 17 5 17 C4.16080602 14.73117913 3.32848276 12.46022973 2.5 10.1875 C2.26152344 9.54490234 2.02304688 8.90230469 1.77734375 8.24023438 C0.72931254 5.35066261 0 3.09923939 0 0 Z " fill="#F5FBFC" transform="translate(113,63)"/>
<path d="M0 0 C-1.98 5.61 -3.96 11.22 -6 17 C-10.95 17 -15.9 17 -21 17 C-12.53014184 -1.18528369 -12.53014184 -1.18528369 0 0 Z " fill="#F5FCFD" transform="translate(90,63)"/>
<path d="M0 0 C2.97 0 5.94 0 9 0 C9.81832722 1.89332534 10.62942268 3.78977733 11.4375 5.6875 C12.11619141 7.27111328 12.11619141 7.27111328 12.80859375 8.88671875 C14 12 14 12 15 17 C10.05 17 5.1 17 0 17 C0 11.39 0 5.78 0 0 Z " fill="#F8FDFD" transform="translate(102,63)"/>
<path d="M0 0 C2.97 0 5.94 0 9 0 C9 5.61 9 11.22 9 17 C4.05 17 -0.9 17 -6 17 C-3 5.28571429 -3 5.28571429 0 0 Z " fill="#F8FDFD" transform="translate(91,63)"/>
<path d="M0 0 C0 3.59947819 -0.83412607 4.25100617 -3 7 C-3.33 7.70125 -3.66 8.4025 -4 9.125 C-5 11 -5 11 -8 13 C-10.34052992 13.54186814 -12.69808717 14.01176137 -15.0625 14.4375 C-19.64929481 15.28796935 -24.11778565 16.25109841 -28.5625 17.6875 C-32.15141895 18.83787135 -35.19594483 19.30032015 -39 19 C-36.84697442 16.84697442 -35.13135628 16.06267398 -32.375 14.8125 C-28.60282139 13.01263192 -26.01670546 11.18855567 -23.125 8.1875 C-19.66691622 4.90018579 -17.23768561 4.55140472 -12.5 4.5625 C-10.66424814 4.67382654 -8.82906927 4.80794773 -7 5 C-7.33 5.99 -7.66 6.98 -8 8 C-5.36 5.36 -2.72 2.72 0 0 Z " fill="#F3FBFC" transform="translate(143,134)"/>
<path d="M0 0 C10.17463363 4.74816236 18.44894636 13.81670318 23 24 C20.5625 23.25 20.5625 23.25 18 22 C17.1875 19.875 17.1875 19.875 17 18 C15.35 17.67 13.7 17.34 12 17 C12 18.65 12 20.3 12 22 C11.56429687 21.62488281 11.12859375 21.24976562 10.6796875 20.86328125 C9.78636719 20.09564453 9.78636719 20.09564453 8.875 19.3125 C8.24207031 18.7659375 7.60914063 18.219375 6.95703125 17.65625 C5.72357227 16.61236455 4.47279309 15.58829829 3.19921875 14.59375 C1.74850041 13.45810414 0.36775234 12.23431308 -1 11 C-1 10.01 -1 9.02 -1 8 C-0.34 8 0.32 8 1 8 C0.7525 6.8553125 0.7525 6.8553125 0.5 5.6875 C0 3 0 3 0 0 Z " fill="#F3F5F6" transform="translate(132,44)"/>
<path d="M0 0 C-3.60113415 2.9259215 -7.28632352 5.70567734 -11.03515625 8.4375 C-13.10152578 9.96084215 -13.10152578 9.96084215 -14.73046875 12.171875 C-18.03054454 14.83011161 -21.21504369 14.43535135 -25.25 14.25 C-26.36761719 14.22292969 -26.36761719 14.22292969 -27.5078125 14.1953125 C-29.33909701 14.14835649 -31.16971649 14.07661652 -33 14 C-24.14535999 4.902351 -13.01052624 -1.00080971 0 0 Z " fill="#F3FBFC" transform="translate(98,47)"/>
<path d="M0 0 C0.33 0 0.66 0 1 0 C1 4.62 1 9.24 1 14 C-1.97 14 -4.94 14 -8 14 C-8.6496875 15.9490625 -8.6496875 15.9490625 -9.3125 17.9375 C-10.875 22.625 -12.4375 27.3125 -14 32 C-12.68 32.33 -11.36 32.66 -10 33 C-11.98 33 -13.96 33 -16 33 C-14.69039355 25.73763698 -12.24043814 19.6169252 -9 13 C-11.31 12.67 -13.62 12.34 -16 12 C-12.38748484 7.43951988 -9.01202555 3.98334854 -4 1 C-3.34 1.33 -2.68 1.66 -2 2 C-2 2.33 -2 2.66 -2 3 C-1.34 2.01 -0.68 1.02 0 0 Z " fill="#7E9FBC" transform="translate(99,49)"/>
<path d="M0 0 C0.01981934 0.68626465 0.03963867 1.3725293 0.06005859 2.07958984 C0.15510945 5.17845779 0.26486847 8.27663294 0.375 11.375 C0.4059375 12.45523438 0.436875 13.53546875 0.46875 14.6484375 C0.50742188 15.6796875 0.54609375 16.7109375 0.5859375 17.7734375 C0.6173584 18.72653809 0.6487793 19.67963867 0.68115234 20.66162109 C0.78555796 23.18895176 0.78555796 23.18895176 3 25 C6.00972657 25.37296556 6.00972657 25.37296556 9.5390625 25.4140625 C10.84101562 25.45273438 12.14296875 25.49140625 13.484375 25.53125 C14.86457862 25.56270763 16.24478704 25.59395491 17.625 25.625 C19.01304541 25.66317934 20.40106711 25.70223105 21.7890625 25.7421875 C25.19257185 25.83672943 28.59607165 25.92227897 32 26 C32 26.33 32 26.66 32 27 C19.46 27 6.92 27 -6 27 C-5.34 25.35 -4.68 23.7 -4 22 C-4.33 21.67 -4.66 21.34 -5 21 C-5.27686887 17.86257232 -5.23173629 14.71070723 -5.25 11.5625 C-5.270625 10.67755859 -5.29125 9.79261719 -5.3125 8.88085938 C-5.31765625 8.03458984 -5.3228125 7.18832031 -5.328125 6.31640625 C-5.3374707 5.53724854 -5.34681641 4.75809082 -5.35644531 3.95532227 C-5.23881836 3.31006592 -5.12119141 2.66480957 -5 2 C-2 0 -2 0 0 0 Z " fill="#FBFEFD" transform="translate(65,91)"/>
<path d="M0 0 C12.12144 0.30098384 23.20810802 4.54887902 32 13 C32 13.33 32 13.66 32 14 C19.87783935 15.07260691 19.87783935 15.07260691 15.640625 12.65234375 C14.37208664 11.45981285 13.14219256 10.2249103 11.953125 8.953125 C9.00735976 6.00735976 5.51470501 4.19653565 1.90625 2.1640625 C1.2771875 1.77992187 0.648125 1.39578125 0 1 C0 0.67 0 0.34 0 0 Z " fill="#F3FBFD" transform="translate(104,47)"/>
<path d="M0 0 C-2.85170774 3.13220359 -5.45336778 4.95716773 -9.3125 6.6875 C-10.21613281 7.10386719 -11.11976562 7.52023438 -12.05078125 7.94921875 C-19.19060467 10.49307637 -26.64020167 10.18296376 -34.125 10.1875 C-35.19621094 10.19974609 -36.26742187 10.21199219 -37.37109375 10.22460938 C-38.40621094 10.22654297 -39.44132812 10.22847656 -40.5078125 10.23046875 C-41.44254395 10.23457764 -42.37727539 10.23868652 -43.34033203 10.24291992 C-46.27845592 9.97456732 -48.39209773 9.3785446 -51 8 C-51.33 7.01 -51.66 6.02 -52 5 C-50.90945312 5.2165625 -50.90945312 5.2165625 -49.796875 5.4375 C-34.91394627 8.18511761 -22.60773226 7.45172346 -8.859375 1.0234375 C-5.72874462 -0.09708867 -3.29960737 -0.18548089 0 0 Z " fill="#F5FCFC" transform="translate(134,147)"/>
<path d="M0 0 C0.556875 0.53625 1.11375 1.0725 1.6875 1.625 C1.3575 2.615 1.0275 3.605 0.6875 4.625 C-1.7875 3.14 -1.7875 3.14 -4.3125 1.625 C-3.69375 2.24375 -3.075 2.8625 -2.4375 3.5 C-1.0625 4.875 0.3125 6.25 1.6875 7.625 C0.93984375 8.28886719 0.1921875 8.95273437 -0.578125 9.63671875 C-1.57309984 10.52844149 -2.56788123 11.42038011 -3.5625 12.3125 C-5.02429688 13.61767578 -5.02429688 13.61767578 -6.515625 14.94921875 C-9.34734421 17.53415336 -9.34734421 17.53415336 -11.546875 20.45703125 C-12.12953125 21.17246094 -12.7121875 21.88789062 -13.3125 22.625 C-13.9725 22.625 -14.6325 22.625 -15.3125 22.625 C-14.9825 20.975 -14.6525 19.325 -14.3125 17.625 C-15.9625 17.295 -17.6125 16.965 -19.3125 16.625 C-18.3225 15.635 -17.3325 14.645 -16.3125 13.625 C-14.6625 14.615 -13.0125 15.605 -11.3125 16.625 C-11.02375 15.820625 -10.735 15.01625 -10.4375 14.1875 C-9.3125 11.625 -9.3125 11.625 -7.3125 10.625 C-7.6425 9.635 -7.9725 8.645 -8.3125 7.625 C-10.32758358 6.89176204 -10.32758358 6.89176204 -12.3125 6.625 C-5.00667476 -2.97694175 -5.00667476 -2.97694175 0 0 Z " fill="#F4F9FB" transform="translate(68.3125,47.375)"/>
<path d="M0 0 C0.66 0.66 1.32 1.32 2 2 C1.1646875 1.80083984 1.1646875 1.80083984 0.3125 1.59765625 C-4.7858701 0.41779695 -9.79787441 -0.43249539 -15 -1 C-13.02 0.32 -11.04 1.64 -9 3 C-12.16820458 3 -13.25594908 2.37202546 -16 1 C-16.99 1 -17.98 1 -19 1 C-19.33 11.23 -19.66 21.46 -20 32 C-20.33 32 -20.66 32 -21 32 C-21.33 22.1 -21.66 12.2 -22 2 C-23.32 3.32 -24.64 4.64 -26 6 C-25.67 4.68 -25.34 3.36 -25 2 C-25.60328125 2.40992188 -26.2065625 2.81984375 -26.828125 3.2421875 C-27.62734375 3.78101563 -28.4265625 4.31984375 -29.25 4.875 C-30.43335937 5.67550781 -30.43335937 5.67550781 -31.640625 6.4921875 C-33.71555692 7.81822015 -35.77614972 8.94928175 -38 10 C-34.27450216 4.99386227 -30.42841405 2.04422227 -25 -1 C-27.97 -1.495 -27.97 -1.495 -31 -2 C-31 -2.33 -31 -2.66 -31 -3 C-20.20316677 -5.40146562 -10.29804678 -3.88659066 0 0 Z " fill="#6E93B2" transform="translate(121,49)"/>
<path d="M0 0 C0.66 0.33 1.32 0.66 2 1 C2.73075648 3.3140622 3.40138258 5.64828869 4 8 C3.34 8 2.68 8 2 8 C2.33 8.66 2.66 9.32 3 10 C4.216875 9.505 5.43375 9.01 6.6875 8.5 C9.92486738 7.27520559 12.50099357 6.67196815 16 7 C12.36973923 9.42017385 8.69988799 10.58713532 4.59375 12 C1.82479855 12.95917541 1.82479855 12.95917541 -1 15 C-4.80459643 14.70733874 -7.20460534 13.58832839 -10 11 C-10 10.34 -10 9.68 -10 9 C-7.525 9.99 -7.525 9.99 -5 11 C-5.66 9.68 -6.32 8.36 -7 7 C-7.99 7.33 -8.98 7.66 -10 8 C-8.7820245 4.34607349 -7.85603494 4.04168301 -4.5625 2.25 C-3.75941406 1.80140625 -2.95632812 1.3528125 -2.12890625 0.890625 C-1.07509766 0.44976562 -1.07509766 0.44976562 0 0 Z " fill="#E3E6E8" transform="translate(74,40)"/>
<path d="M0 0 C1.37478516 0.01740234 1.37478516 0.01740234 2.77734375 0.03515625 C3.69644531 0.04417969 4.61554688 0.05320312 5.5625 0.0625 C6.27277344 0.07410156 6.98304688 0.08570312 7.71484375 0.09765625 C8.6490802 3.10797369 8.75934286 3.96415893 7.71484375 7.09765625 C6.06484375 7.42765625 4.41484375 7.75765625 2.71484375 8.09765625 C2.38484375 13.04765625 2.05484375 17.99765625 1.71484375 23.09765625 C1.38484375 23.09765625 1.05484375 23.09765625 0.71484375 23.09765625 C0.71484375 18.47765625 0.71484375 13.85765625 0.71484375 9.09765625 C-3.24515625 11.07765625 -3.24515625 11.07765625 -7.28515625 13.09765625 C-7.78993227 7.79750807 -6.49332939 5.27800307 -3.28515625 1.09765625 C-2.28515625 0.09765625 -2.28515625 0.09765625 0 0 Z " fill="#94989C" transform="translate(142.28515625,83.90234375)"/>
<path d="M0 0 C5.61 0 11.22 0 17 0 C17 2.31 17 4.62 17 7 C15.68 6.67 14.36 6.34 13 6 C13.66 4.35 14.32 2.7 15 1 C8.565 1.495 8.565 1.495 2 2 C2.81855469 2.77601562 3.63710938 3.55203125 4.48046875 4.3515625 C8.06354362 8.65125234 7.56077013 13.02000432 7.3125 18.375 C7.28994141 19.30183594 7.26738281 20.22867188 7.24414062 21.18359375 C7.18553677 23.45742335 7.1035693 25.72784886 7 28 C8.32 28.66 9.64 29.32 11 30 C8.69 30.33 6.38 30.66 4 31 C4 23.08 4 15.16 4 7 C2.68 7 1.36 7 0 7 C0 4.69 0 2.38 0 0 Z " fill="#C14247" transform="translate(46,84)"/>
<path d="M0 0 C2.31 0 4.62 0 7 0 C7 10.23 7 20.46 7 31 C6.67 31 6.34 31 6 31 C5.67 26.05 5.34 21.1 5 16 C3.68 16.33 2.36 16.66 1 17 C-0.22517308 11.33357449 -0.09228867 5.76291482 0 0 Z " fill="#9C9D9F" transform="translate(124,84)"/>
<path d="M0 0 C0.99 0.66 1.98 1.32 3 2 C2.67 3.32 2.34 4.64 2 6 C1.34 6 0.68 6 0 6 C1.42886024 9.39354306 3.15317457 11.19742061 6 13.5 C8.84682543 15.80257939 10.57113976 17.60645694 12 21 C11.50371094 20.50242187 11.00742188 20.00484375 10.49609375 19.4921875 C6.54510258 17.13024911 2.36866764 17.94321227 -2.06835938 18.29296875 C-6.06128364 18.46510981 -7.67951239 18.26722221 -10.796875 15.66796875 C-11.52390625 14.78753906 -12.2509375 13.90710937 -13 13 C-14.08818815 12.04399957 -15.18911503 11.10188312 -16.3125 10.1875 C-17.6428125 9.1046875 -17.6428125 9.1046875 -19 8 C-16 8 -16 8 -14.6328125 9.3125 C-14.13523437 9.869375 -13.63765625 10.42625 -13.125 11 C-9.56905288 14.27177856 -6.8257005 14.40609815 -2.0625 14.375 C-0.04007033 14.2792367 1.98194689 14.16387198 4 14 C2.75312408 13.03760548 1.50235031 12.08025991 0.25 11.125 C-0.44609375 10.59132813 -1.1421875 10.05765625 -1.859375 9.5078125 C-3.84722603 8.10761086 -5.79843386 7.02144735 -8 6 C-5 5 -5 5 -3 5 C-1.3553326 2.53673288 -1.3553326 2.53673288 0 0 Z " fill="#7D9FBD" transform="translate(131,46)"/>
<path d="M0 0 C9.57 0 19.14 0 29 0 C29 0.33 29 0.66 29 1 C26.36 1 23.72 1 21 1 C21 11.23 21 21.46 21 32 C20.34 31.67 19.68 31.34 19 31 C19 23.41 19 15.82 19 8 C18.34 8 17.68 8 17 8 C17 5.69 17 3.38 17 1 C11.39 1 5.78 1 0 1 C0 0.67 0 0.34 0 0 Z " fill="#FEECEC" transform="translate(46,83)"/>
<path d="M0 0 C-0.66 2.31 -1.32 4.62 -2 7 C-3.32 7 -4.64 7 -6 7 C-6.33 6.34 -6.66 5.68 -7 5 C-7.33 5.99 -7.66 6.98 -8 8 C-8.99 8 -9.98 8 -11 8 C-11.66 7.01 -12.32 6.02 -13 5 C-13 6.32 -13 7.64 -13 9 C-14.32 9.33 -15.64 9.66 -17 10 C-17.33 8.35 -17.66 6.7 -18 5 C-17.34 5 -16.68 5 -16 5 C-16.33 4.01 -16.66 3.02 -17 2 C-14.91952703 1.4678559 -12.83547707 0.94968214 -10.75 0.4375 C-9.58984375 0.14746094 -8.4296875 -0.14257812 -7.234375 -0.44140625 C-4.27909017 -0.95179964 -2.75565899 -1.02996165 0 0 Z " fill="#F2F3F3" transform="translate(96,36)"/>
<path d="M0 0 C3.63 0.66 7.26 1.32 11 2 C11 3.32 11 4.64 11 6 C9.35 6 7.7 6 6 6 C6 6.66 6 7.32 6 8 C5.34 8 4.68 8 4 8 C4 7.01 4 6.02 4 5 C3.34 5 2.68 5 2 5 C1.34 6.65 0.68 8.3 0 10 C-2.64 10 -5.28 10 -8 10 C-7.67 7.69 -7.34 5.38 -7 3 C-6.34 3 -5.68 3 -5 3 C-5 3.66 -5 4.32 -5 5 C-4.34 5 -3.68 5 -3 5 C-3 4.34 -3 3.68 -3 3 C-2.34 3 -1.68 3 -1 3 C-0.67 2.01 -0.34 1.02 0 0 Z " fill="#E3E3E4" transform="translate(106,35)"/>
<path d="M0 0 C2.64 0 5.28 0 8 0 C8 10.23 8 20.46 8 31 C5.36 31 2.72 31 0 31 C0 20.77 0 10.54 0 0 Z M1 1 C0.97272322 3.97923003 0.95302872 6.95820379 0.9375 9.9375 C0.92912109 10.76830078 0.92074219 11.59910156 0.91210938 12.45507812 C0.89033044 18.05226441 1.28840732 23.44733582 2 29 C3.32 29 4.64 29 6 29 C6.9821994 25.72373625 7.11580914 22.77211881 7.09765625 19.359375 C7.09443359 18.28945312 7.09121094 17.21953125 7.08789062 16.1171875 C7.07951172 15.00601563 7.07113281 13.89484375 7.0625 12.75 C7.05798828 11.62335938 7.05347656 10.49671875 7.04882812 9.3359375 C7.03705397 6.55723783 7.0206084 3.77864591 7 1 C5.02 1 3.04 1 1 1 Z " fill="#B73F42" transform="translate(85,84)"/>
<path d="M0 0 C1.98 0 3.96 0 6 0 C6 5.28 6 10.56 6 16 C3.03 15.505 3.03 15.505 0 15 C0 10.05 0 5.1 0 0 Z " fill="#DE3130" transform="translate(68,85)"/>
<path d="M0 0 C1.51400391 0.01740234 1.51400391 0.01740234 3.05859375 0.03515625 C4.07050781 0.04417969 5.08242187 0.05320313 6.125 0.0625 C7.29869141 0.07990234 7.29869141 0.07990234 8.49609375 0.09765625 C3.31367554 5.78159881 -2.71686843 10.94605207 -10.50390625 12.09765625 C-9.35964359 10.28416425 -8.21345233 8.471889 -7.06640625 6.66015625 C-6.10927734 5.14615234 -6.10927734 5.14615234 -5.1328125 3.6015625 C-2.8624575 0.11164031 -2.8624575 0.11164031 0 0 Z " fill="#EDF9FD" transform="translate(113.50390625,138.90234375)"/>
<path d="M0 0 C0 4.75109348 -2.63837259 7.92619272 -5 12 C-0.71 12.33 3.58 12.66 8 13 C8 13.66 8 14.32 8 15 C-2.89 15 -13.78 15 -25 15 C-25 14.01 -25 13.02 -25 12 C-19.06 12.33 -13.12 12.66 -7 13 C-6.34 11.02 -5.68 9.04 -5 7 C-3.48691241 4.51486826 -1.76550175 2.32302861 0 0 Z " fill="#85AAC8" transform="translate(75,67)"/>
<path d="M0 0 C0.33 0.66 0.66 1.32 1 2 C1.66 2 2.32 2 3 2 C3.99 3.98 4.98 5.96 6 8 C5.34 8 4.68 8 4 8 C4 8.99 4 9.98 4 11 C6.475 11.99 6.475 11.99 9 13 C7.68 14.32 6.36 15.64 5 17 C-0.75 12.375 -0.75 12.375 -3 9 C-3.06573798 6.1842234 -2.54131918 3.79681576 -2 1 C-1.34 0.67 -0.68 0.34 0 0 Z " fill="#A7B3BB" transform="translate(146,60)"/>
<path d="M0 0 C3.47898745 -0.55691301 6.54425869 -0.77252041 10 0 C13.50846466 3.38988832 15.47122832 7.41368495 17 12 C11.55083937 11.619826 9.61573065 9.97730371 6 6 C4.90930764 5.06734145 3.8050406 4.15031374 2.6875 3.25 C1.800625 2.5075 0.91375 1.765 0 1 C0 0.67 0 0.34 0 0 Z " fill="#E6F8FD" transform="translate(81,139)"/>
<path d="M0 0 C0 3.59947819 -0.83412607 4.25100617 -3 7 C-3.33 7.70125 -3.66 8.4025 -4 9.125 C-5 11 -5 11 -8 13 C-10.04869074 13.44429438 -12.11454293 13.81294195 -14.1875 14.125 C-15.27417969 14.29257813 -16.36085938 14.46015625 -17.48046875 14.6328125 C-18.31191406 14.75398437 -19.14335938 14.87515625 -20 15 C-17.38485683 12.87961365 -14.80362384 10.86908256 -12 9 C-11.67 8.01 -11.34 7.02 -11 6 C-13.64 6 -16.28 6 -19 6 C-19 5.67 -19 5.34 -19 5 C-15.04 5 -11.08 5 -7 5 C-7.33 5.99 -7.66 6.98 -8 8 C-5.36 5.36 -2.72 2.72 0 0 Z " fill="#F1F1F4" transform="translate(143,134)"/>
<path d="M0 0 C1.32 0.33 2.64 0.66 4 1 C3.67 1.556875 3.34 2.11375 3 2.6875 C1.8690399 5.30284522 1.84337026 7.1806646 2 10 C-6.94161491 9.09068323 -6.94161491 9.09068323 -11 7 C-11.33 6.34 -11.66 5.68 -12 5 C-10.625 3.5 -10.625 3.5 -9 2 C-8.34 2 -7.68 2 -7 2 C-7 2.99 -7 3.98 -7 5 C-6.34 5 -5.68 5 -5 5 C-5 4.34 -5 3.68 -5 3 C-4.01 2.67 -3.02 2.34 -2 2 C-1.34 2.33 -0.68 2.66 0 3 C0 2.01 0 1.02 0 0 Z " fill="#F3F9FA" transform="translate(117,38)"/>
<path d="M0 0 C4 2 4 2 5.71972656 3.05810547 C8.81028654 4.33469866 11.39612437 4.2245954 14.734375 4.1953125 C16.67763672 4.18564453 16.67763672 4.18564453 18.66015625 4.17578125 C20.02344019 4.15907193 21.38672144 4.14214206 22.75 4.125 C24.12889985 4.1149634 25.50780665 4.10583873 26.88671875 4.09765625 C30.25798882 4.07408093 33.62890636 4.0411727 37 4 C26.56408853 9.30959339 13.22200026 7.84725729 2.22265625 4.8515625 C0 4 0 4 -2 2 C-1.34 1.34 -0.68 0.68 0 0 Z " fill="#FEE8E7" transform="translate(80,152)"/>
<path d="M0 0 C4.62 0 9.24 0 14 0 C12.9957244 5.02137798 12.60239038 5.86243419 9 9 C7.49704815 7.69088122 5.99770689 6.37761608 4.5 5.0625 C3.6646875 4.33160156 2.829375 3.60070312 1.96875 2.84765625 C1.3190625 2.23792969 0.669375 1.62820312 0 1 C0 0.67 0 0.34 0 0 Z " fill="#E22E2E" transform="translate(47,85)"/>
<path d="M0 0 C2.31 0 4.62 0 7 0 C7 3.3 7 6.6 7 10 C4.69 10 2.38 10 0 10 C0 6.7 0 3.4 0 0 Z " fill="#4D4E4E" transform="translate(99,105)"/>
<path d="M0 0 C6.24548566 2.78816324 11.17845012 6.11433376 16 11 C16 11.33 16 11.66 16 12 C12.80749309 12.65153202 10.16829055 12.84220382 7 12 C4.0294531 9.0294531 1.90463192 5.73577322 0 2 C0 1.34 0 0.68 0 0 Z " fill="#E8F7FC" transform="translate(104,49)"/>
<path d="M0 0 C0.66 0.33 1.32 0.66 2 1 C-3.99959737 14.54636886 -11.15543869 27.20357899 -25 34 C-25.66 33.67 -26.32 33.34 -27 33 C-26.2265625 32.46632812 -25.453125 31.93265625 -24.65625 31.3828125 C-12.73893695 22.85780391 -6.07830257 13.1823187 0 0 Z " fill="#B85F60" transform="translate(154,119)"/>
<path d="M0 0 C1.98 0 3.96 0 6 0 C6 3.63 6 7.26 6 11 C4.02 11 2.04 11 0 11 C0 7.37 0 3.74 0 0 Z " fill="#4E4D4E" transform="translate(112,104)"/>
<path d="M0 0 C0.33 0.66 0.66 1.32 1 2 C-6.55253105 13.67917173 -14.79427811 23.38334162 -28 29 C-28.66 28.67 -29.32 28.34 -30 28 C-29.32195312 27.59910156 -28.64390625 27.19820312 -27.9453125 26.78515625 C-16.33424745 19.69307912 -7.53516606 11.30274908 0 0 Z " fill="#686A69" transform="translate(155,132)"/>
<path d="M0 0 C1.11375 0.3403125 1.11375 0.3403125 2.25 0.6875 C2.25 4.6875 2.25 4.6875 0.8125 6.3125 C0.296875 6.76625 -0.21875 7.22 -0.75 7.6875 C-1.08 8.3475 -1.41 9.0075 -1.75 9.6875 C-6.5 7.8125 -6.5 7.8125 -8.75 6.6875 C-6.97710463 2.40300285 -4.94524284 -0.56195941 0 0 Z " fill="#DADADB" transform="translate(58.75,54.3125)"/>
<path d="M0 0 C0.33 0.66 0.66 1.32 1 2 C3.52733235 2.65555119 3.52733235 2.65555119 6 3 C6.33 2.01 6.66 1.02 7 0 C7.66 0 8.32 0 9 0 C8.01 3.3 7.02 6.6 6 10 C5.34 9.34 4.68 8.68 4 8 C3.175 8 2.35 8 1.5 8 C0.675 8 -0.15 8 -1 8 C-1.66 7.34 -2.32 6.68 -3 6 C-2.75 3.4375 -2.75 3.4375 -2 1 C-1.34 0.67 -0.68 0.34 0 0 Z " fill="#E1E5E9" transform="translate(44,72)"/>
<path d="M0 0 C0.99 0.33 1.98 0.66 3 1 C-0.63197058 8.74748754 -3.9546128 15.80716433 -10 22 C-10.66 21.34 -11.32 20.68 -12 20 C-11.401875 19.484375 -10.80375 18.96875 -10.1875 18.4375 C-8.05002662 16.05574395 -7.01605146 13.97157596 -5.859375 11.015625 C-4.22536206 7.18312193 -2.07094546 3.60982983 0 0 Z " fill="#F8EAEB" transform="translate(151,120)"/>
<path d="M0 0 C0.66 0.33 1.32 0.66 2 1 C0.30246023 4.60084193 -1.43451673 7.94074171 -4 11 C-7.06058568 11.9324365 -8.77170532 11.55660253 -12 11 C-8.38748484 6.43951988 -5.01202555 2.98334854 0 0 Z " fill="#EAF9FD" transform="translate(95,50)"/>
<path d="M0 0 C0.99 0.33 1.98 0.66 3 1 C3.6875 3.0625 3.6875 3.0625 4 5 C3.34 5 2.68 5 2 5 C2.33 5.66 2.66 6.32 3 7 C4.216875 6.505 5.43375 6.01 6.6875 5.5 C9.92486738 4.27520559 12.50099357 3.67196815 16 4 C13.16533147 5.88977902 10.8160237 6.88095607 7.625 8 C4.0493707 9.26082796 0.51164846 10.56980136 -3 12 C-2.42655063 9.13275314 -2.1385485 8.1385485 0 6 C-0.66 4.35 -1.32 2.7 -2 1 C-1.34 0.67 -0.68 0.34 0 0 Z " fill="#A0B6C8" transform="translate(74,43)"/>
<path d="M0 0 C3.27742098 3.10026309 5.93104837 5.97098894 8 10 C8 10.66 8 11.32 8 12 C5.36 12 2.72 12 0 12 C0 8.04 0 4.08 0 0 Z " fill="#E0F3FB" transform="translate(101,49)"/>
<path d="M0 0 C2.64 0 5.28 0 8 0 C6.54997977 4.10839064 4.6020866 7.50344613 2 11 C1.34 11 0.68 11 0 11 C0 7.37 0 3.74 0 0 Z " fill="#DCF2FC" transform="translate(101,139)"/>
<path d="M0 0 C1.98 0 3.96 0 6 0 C6 2.97 6 5.94 6 9 C4.35 9.66 2.7 10.32 1 11 C0.67 7.37 0.34 3.74 0 0 Z " fill="#8F9298" transform="translate(124,90)"/>
<path d="M0 0 C1.50433594 0.01353516 1.50433594 0.01353516 3.0390625 0.02734375 C3.80992187 0.03894531 4.58078125 0.05054687 5.375 0.0625 C5.375 0.3925 5.375 0.7225 5.375 1.0625 C2.735 1.3925 0.095 1.7225 -2.625 2.0625 C-2.625 7.6725 -2.625 13.2825 -2.625 19.0625 C-4.58776436 16.11835347 -5.34233962 14.00351364 -6.25 10.625 C-6.64058594 9.20380859 -6.64058594 9.20380859 -7.0390625 7.75390625 C-7.625 5.0625 -7.625 5.0625 -7.625 1.0625 C-4.98041621 -0.25979189 -2.94738699 -0.03427194 0 0 Z " fill="#E9EEEF" transform="translate(127.625,81.9375)"/>
<path d="M0 0 C-3.33536869 3.89126347 -7.26210499 6.17099741 -12 8 C-12.99 8 -13.98 8 -15 8 C-15 6.68 -15 5.36 -15 4 C-5.77448747 -0.59225513 -5.77448747 -0.59225513 0 0 Z " fill="#F6F1F1" transform="translate(134,147)"/>
<path d="M0 0 C-3.17530109 2.72168665 -5.94254825 4.85559053 -10 6 C-11.9375 5.625 -11.9375 5.625 -14 5 C-15.99963028 4.96154557 -18.00051633 4.95455719 -20 5 C-13.70648143 0.80432095 -7.46819926 -0.40735632 0 0 Z " fill="#E3F5FB" transform="translate(98,47)"/>
<path d="M0 0 C2.64 0 5.28 0 8 0 C8 3.63 8 7.26 8 11 C4.31993178 7.61831569 2.0214155 4.57478244 0 0 Z " fill="#EBF8FC" transform="translate(92,139)"/>
<path d="M0 0 C0.33 0 0.66 0 1 0 C1 3.96 1 7.92 1 12 C-1.31 12 -3.62 12 -6 12 C-4.68315519 7.39104317 -2.84801255 3.85859765 0 0 Z " fill="#EEFAFD" transform="translate(99,49)"/>
<path d="M0 0 C1.65 0 3.3 0 5 0 C4.34 0.66 3.68 1.32 3 2 C2.66363418 3.9824894 2.66363418 3.9824894 2.65625 6.24609375 C2.61177734 7.50196289 2.61177734 7.50196289 2.56640625 8.78320312 C2.54449219 9.65912109 2.52257813 10.53503906 2.5 11.4375 C2.45657389 13.16560384 2.40483241 14.89352389 2.34375 16.62109375 C2.32505859 17.3886499 2.30636719 18.15620605 2.28710938 18.94702148 C2 21 2 21 0 24 C0 16.08 0 8.16 0 0 Z " fill="#EDC3C4" transform="translate(58,91)"/>
<path d="M0 0 C0.66 0.66 1.32 1.32 2 2 C0.72125 1.690625 -0.5575 1.38125 -1.875 1.0625 C-5.34052112 0.28084461 -8.7104467 -0.20769455 -12.25 -0.5 C-15.83155602 -0.80683112 -18.74338811 -1.37169406 -22 -3 C-22.33 -2.34 -22.66 -1.68 -23 -1 C-25.64 -1.33 -28.28 -1.66 -31 -2 C-31 -2.33 -31 -2.66 -31 -3 C-20.20316677 -5.40146562 -10.29804678 -3.88659066 0 0 Z " fill="#7EA0BD" transform="translate(121,49)"/>
<path d="M0 0 C0.66 0 1.32 0 2 0 C2 0.66 2 1.32 2 2 C2.66 2 3.32 2 4 2 C4 1.34 4 0.68 4 0 C5.32 0 6.64 0 8 0 C8.125 4.75 8.125 4.75 7 7 C4.36 7 1.72 7 -1 7 C-0.67 4.69 -0.34 2.38 0 0 Z " fill="#C6CCCE" transform="translate(99,38)"/>
<path d="M0 0 C2.0245738 1.93254772 3.42105792 3.63158688 5 6 C5.66 6 6.32 6 7 6 C7 6.66 7 7.32 7 8 C4.1805932 9.4097034 1.76732774 9.16984647 -1.375 9.1875 C-2.51710937 9.20167969 -3.65921875 9.21585938 -4.8359375 9.23046875 C-8 9 -8 9 -12 7 C-7.38 7 -2.76 7 2 7 C1.34 4.69 0.68 2.38 0 0 Z " fill="#8DAFCB" transform="translate(147,73)"/>
<path d="M0 0 C2.1385485 2.1385485 2.42655063 3.13275314 3 6 C2.01 6 1.02 6 0 6 C-0.66 5.01 -1.32 4.02 -2 3 C-2 4.32 -2 5.64 -2 7 C-3.32 7.33 -4.64 7.66 -6 8 C-6.33 6.35 -6.66 4.7 -7 3 C-6.34 3 -5.68 3 -5 3 C-5.33 2.01 -5.66 1.02 -6 0 C-3 -1 -3 -1 0 0 Z " fill="#CED1D1" transform="translate(85,38)"/>
<path d="M0 0 C4.875 4.625 4.875 4.625 6 8 C0.64951939 7.62671065 -1.50912907 6.0042343 -5 2 C-4.34 1.67 -3.68 1.34 -3 1 C-2.01 1.33 -1.02 1.66 0 2 C0 1.34 0 0.68 0 0 Z " fill="#B7D3E3" transform="translate(92,143)"/>
<path d="M0 0 C0.33 0.66 0.66 1.32 1 2 C1.66 2 2.32 2 3 2 C3.6875 3.6875 3.6875 3.6875 4 6 C2.5625 8.75 2.5625 8.75 1 11 C-1.0625 8.8125 -1.0625 8.8125 -3 6 C-2.875 3.25 -2.875 3.25 -2 1 C-1.34 0.67 -0.68 0.34 0 0 Z " fill="#E9F0F5" transform="translate(146,60)"/>
<path d="M0 0 C1.32 0 2.64 0 4 0 C4 2.97 4 5.94 4 9 C2.02 9.99 2.02 9.99 0 11 C0 7.37 0 3.74 0 0 Z " fill="#E62D2C" transform="translate(87,85)"/>
<path d="M0 0 C0.99 0.66 1.98 1.32 3 2 C2.67 3.32 2.34 4.64 2 6 C1.34 6 0.68 6 0 6 C0 6.99 0 7.98 0 9 C-2.92879371 8.37240135 -5.36095629 7.41377341 -8 6 C-5 5 -5 5 -3 5 C-1.3553326 2.53673288 -1.3553326 2.53673288 0 0 Z " fill="#ABC4D6" transform="translate(131,46)"/>
<path d="M0 0 C1.546875 0.8971875 1.546875 0.8971875 3.125 1.8125 C6.36007317 3.66393699 9.64917836 5.36545286 13 7 C12.34 7.66 11.68 8.32 11 9 C9.9275 8.525625 8.855 8.05125 7.75 7.5625 C5.67797135 6.66490054 3.82934813 5.95958245 1.625 5.4375 C0.820625 5.2209375 0.820625 5.2209375 0 5 C-0.33 4.34 -0.66 3.68 -1 3 C-0.67 2.01 -0.34 1.02 0 0 Z " fill="#F1F7FA" transform="translate(65,142)"/>
<path d="M0 0 C1.65 0 3.3 0 5 0 C4.67 2.64 4.34 5.28 4 8 C2.68 8 1.36 8 0 8 C0 5.36 0 2.72 0 0 Z " fill="#C2262C" transform="translate(87,105)"/>
<path d="M0 0 C5.94 0 11.88 0 18 0 C17.01 1.485 17.01 1.485 16 3 C13.6875 3.2578125 13.6875 3.2578125 11 3.125 C7.3582451 2.86907371 7.3582451 2.86907371 4 4 C4 3.01 4 2.02 4 1 C2.68 0.67 1.36 0.34 0 0 Z " fill="#EEF4F5" transform="translate(134,82)"/>
<path d="M0 0 C3.96 0 7.92 0 12 0 C6.7042641 8.01925722 6.7042641 8.01925722 2 10 C1.01 9.67 0.02 9.34 -1 9 C-0.43410156 8.67386719 0.13179688 8.34773437 0.71484375 8.01171875 C1.44832031 7.57472656 2.18179688 7.13773438 2.9375 6.6875 C3.66839844 6.25824219 4.39929688 5.82898438 5.15234375 5.38671875 C7.29977412 4.04889746 7.29977412 4.04889746 8 1 C5.36 1 2.72 1 0 1 C0 0.67 0 0.34 0 0 Z " fill="#A9C9DC" transform="translate(124,139)"/>
<path d="M0 0 C-0.75 2.4375 -0.75 2.4375 -2 5 C-4 5.9375 -4 5.9375 -6 6 C-6.66 5.34 -7.32 4.68 -8 4 C-8 3.01 -8 2.02 -8 1 C-5.29120665 -0.35439668 -2.99066732 -0.06501451 0 0 Z " fill="#D6DCDF" transform="translate(139,51)"/>
<path d="M0 0 C0.33 1.32 0.66 2.64 1 4 C-2.16240582 6.10827055 -3.50657469 6.33817465 -7.1875 6.625 C-8.08855469 6.69976562 -8.98960938 6.77453125 -9.91796875 6.8515625 C-10.60503906 6.90054688 -11.29210937 6.94953125 -12 7 C-9.76425178 4.76425178 -7.71033371 3.75631642 -4.875 2.375 C-3.96492188 1.92898437 -3.05484375 1.48296875 -2.1171875 1.0234375 C-1.06917969 0.51683594 -1.06917969 0.51683594 0 0 Z " fill="#DFF3FC" transform="translate(116,146)"/>
<path d="M0 0 C2.95294288 0.64367519 5.48281988 1.59277161 8.1875 2.9375 C8.88230469 3.27652344 9.57710937 3.61554687 10.29296875 3.96484375 C12 5 12 5 13 7 C12.236875 6.67 11.47375 6.34 10.6875 6 C8.00930865 4.82563314 8.00930865 4.82563314 5 5 C2.65789079 4.36485174 0.32315031 3.7013284 -2 3 C-1.34 2.67 -0.68 2.34 0 2 C0 1.34 0 0.68 0 0 Z " fill="#6091BB" transform="translate(99,46)"/>
<path d="M0 0 C4.54491695 3.07088983 6.06337678 5.92789156 8 11 C8.99 12.485 8.99 12.485 10 14 C5.79236776 12.4972742 4.1972242 9.76667005 2 6 C2 5.34 2 4.68 2 4 C1.34 4 0.68 4 0 4 C0 2.68 0 1.36 0 0 Z " fill="#91AEC3" transform="translate(69,123)"/>
<path d="M0 0 C1.30048841 2.60097682 1.56471422 5.13955062 2 8 C-0.475 9.485 -0.475 9.485 -3 11 C-3.32613618 6.32538149 -2.70582788 3.83325617 0 0 Z " fill="#94969A" transform="translate(138,86)"/>
<path d="M0 0 C1.98 0 3.96 0 6 0 C6.93423645 3.01031744 7.04449911 3.86650268 6 7 C4.35 7 2.7 7 1 7 C2.32 5.35 3.64 3.7 5 2 C3.35 2 1.7 2 0 2 C0 1.34 0 0.68 0 0 Z " fill="#737373" transform="translate(144,84)"/>
<path d="M0 0 C2.45898655 -0.08076963 4.91533742 -0.14037143 7.375 -0.1875 C8.07367188 -0.21263672 8.77234375 -0.23777344 9.4921875 -0.26367188 C11.5234375 -0.29296875 11.5234375 -0.29296875 15 0 C15.66 0.99 16.32 1.98 17 3 C16.01 2.67 15.02 2.34 14 2 C11.78174972 1.76764412 11.78174972 1.76764412 9.4375 1.75 C8.65246094 1.72421875 7.86742187 1.6984375 7.05859375 1.671875 C6.37925781 1.78015625 5.69992188 1.8884375 5 2 C4.01 3.485 4.01 3.485 3 5 C2.01 3.35 1.02 1.7 0 0 Z " fill="#E8FAFE" transform="translate(124,63)"/>
<path d="M0 0 C1.60495567 0.11442461 3.20898119 0.24194694 4.8125 0.375 C5.70582031 0.44460937 6.59914063 0.51421875 7.51953125 0.5859375 C10 1 10 1 13 3 C12.360625 3.12375 11.72125 3.2475 11.0625 3.375 C10.381875 3.58125 9.70125 3.7875 9 4 C8.67 4.66 8.34 5.32 8 6 C6.66402348 5.19185349 5.331275 4.37836819 4 3.5625 C3.2575 3.11003906 2.515 2.65757813 1.75 2.19140625 C1.1725 1.79824219 0.595 1.40507813 0 1 C0 0.67 0 0.34 0 0 Z " fill="#DDF3FC" transform="translate(104,47)"/>
<path d="M0 0 C2.6015625 -0.29296875 2.6015625 -0.29296875 5.625 -0.1875 C7.12933594 -0.14689453 7.12933594 -0.14689453 8.6640625 -0.10546875 C9.43492188 -0.07066406 10.20578125 -0.03585938 11 0 C9.68 1.32 8.36 2.64 7 4 C7 3.01 7 2.02 7 1 C4.02934491 1.34227572 4.02934491 1.34227572 1 2 C0.67 2.66 0.34 3.32 0 4 C-0.66 3.67 -1.32 3.34 -2 3 C-1.34 2.01 -0.68 1.02 0 0 Z " fill="#D5F2FD" transform="translate(111,139)"/>
<path d="M0 0 C2.6855594 2.6855594 3.06049974 5.37621328 4 9 C3.01 8.67 2.02 8.34 1 8 C0.67 8.99 0.34 9.98 0 11 C0 7.37 0 3.74 0 0 Z " fill="#E7E7E6" transform="translate(118,104)"/>
<path d="M0 0 C2 3 2 3 1.75 4.9375 C0.97936717 7.05674028 0.0643413 9.01322958 -1 11 C-1.66 11 -2.32 11 -3 11 C-2.32829194 7.1936543 -1.27253436 3.64793184 0 0 Z " fill="#E9F7FC" transform="translate(117,124)"/>
<path d="M0 0 C1.58971965 2.38457948 2.86741593 4.6304124 4.125 7.1875 C4.47820313 7.90292969 4.83140625 8.61835938 5.1953125 9.35546875 C5.46085937 9.89816406 5.72640625 10.44085938 6 11 C5.01 11 4.02 11 3 11 C3 10.01 3 9.02 3 8 C2.34 8 1.68 8 1 8 C0.67 5.36 0.34 2.72 0 0 Z " fill="#E8F6FC" transform="translate(50,121)"/>
<path d="M0 0 C0.99 0.33 1.98 0.66 3 1 C4.1875 3.5625 4.1875 3.5625 5 6 C4.401875 5.67 3.80375 5.34 3.1875 5 C0.94613529 3.79212012 0.94613529 3.79212012 -2 4 C-2 3.01 -2 2.02 -2 1 C-1.34 0.67 -0.68 0.34 0 0 Z " fill="#D3D5D4" transform="translate(67,44)"/>
<path d="M0 0 C0.99 0 1.98 0 3 0 C3.185625 0.9590625 3.185625 0.9590625 3.375 1.9375 C3.684375 2.9584375 3.684375 2.9584375 4 4 C4.66 4.33 5.32 4.66 6 5 C4.02 5 2.04 5 0 5 C0 3.35 0 1.7 0 0 Z " fill="#8D8F93" transform="translate(112,99)"/>
<path d="M0 0 C0.99 0 1.98 0 3 0 C3 1.98 3 3.96 3 6 C1.68 5.67 0.36 5.34 -1 5 C-0.67 3.35 -0.34 1.7 0 0 Z " fill="#E72E2B" transform="translate(70,94)"/>
<path d="M0 0 C1.98 0.495 1.98 0.495 4 1 C3.67 2.32 3.34 3.64 3 5 C1.68 4.67 0.36 4.34 -1 4 C-0.67 2.68 -0.34 1.36 0 0 Z " fill="#A0A3A6" transform="translate(47,70)"/>
<path d="M0 0 C1.32 0.33 2.64 0.66 4 1 C4 2.32 4 3.64 4 5 C2.68 5 1.36 5 0 5 C0 3.35 0 1.7 0 0 Z " fill="#AAABAF" transform="translate(90,38)"/>
<path d="M0 0 C1.98 0.495 1.98 0.495 4 1 C3.67 2.32 3.34 3.64 3 5 C1.68 4.34 0.36 3.68 -1 3 C-0.67 2.01 -0.34 1.02 0 0 Z " fill="#A8A8AB" transform="translate(54,59)"/>
<path d="M0 0 C0.33 0.66 0.66 1.32 1 2 C1.66 2 2.32 2 3 2 C3 2.66 3 3.32 3 4 C1.02 4.99 1.02 4.99 -1 6 C-1.33 4.35 -1.66 2.7 -2 1 C-1.34 0.67 -0.68 0.34 0 0 Z " fill="#A6A8AC" transform="translate(146,60)"/>
<path d="M0 0 C0.99 0.66 1.98 1.32 3 2 C2.67 3.32 2.34 4.64 2 6 C0.68 5.67 -0.64 5.34 -2 5 C-1.34 3.35 -0.68 1.7 0 0 Z " fill="#A5A5A7" transform="translate(131,46)"/>
<path d="M0 0 C1.65 1.65 3.3 3.3 5 5 C2.03 4.01 -0.94 3.02 -4 2 C-2.68 1.34 -1.36 0.68 0 0 Z " fill="#E7F6FC" transform="translate(123,47)"/>
<path d="M0 0 C0.99 0.33 1.98 0.66 3 1 C3 1.99 3 2.98 3 4 C2.01 4.33 1.02 4.66 0 5 C-0.66 3.68 -1.32 2.36 -2 1 C-1.34 0.67 -0.68 0.34 0 0 Z " fill="#A3A4A7" transform="translate(74,43)"/>
<path d="M0 0 C1.32 0 2.64 0 4 0 C4.33 1.32 4.66 2.64 5 4 C3.68 4.33 2.36 4.66 1 5 C0.67 3.35 0.34 1.7 0 0 Z " fill="#A9A8AA" transform="translate(78,41)"/>
</svg>
